# xmcd
#
# Track frame offsets:
#	150
#	17800
#	42036
#	70639
#	94187
#	113010
#	151584
#	178911
#
# Disc length: 2834 seconds
#
# Revision: 0
# Processed by: cddbd v1.5.1PL0 Copyright (c) Steve Scherf et al.
# Submitted via: dBpowerAMP V4.0
#
DISCID=570b1008
DTITLE=Strikers - Blues Band Live
DYEAR=2003
DGENRE=Blues
TTITLE0=If You Love Me Like You Say
TTITLE1=Wait On Time
TTITLE2=Honey Hush
TTITLE3=I'm Leaving
TTITLE4=Funky Bitch
TTITLE5=All Your Love
TTITLE6=Master Charge
TTITLE7=I Can't Hold You
EXTD=Live du 29 novembre 2003 à Gamarde Les Bains
EXTT0=
EXTT1=
EXTT2=
EXTT3=
EXTT4=
EXTT5=
EXTT6=
EXTT7=
PLAYORDER=
